<?xml version="1.0" encoding="utf-8"?>
<svg version="1.1"
	 id="svg6" xmlns:svg="http://www.w3.org/2000/svg" xmlns:sodipodi="http://sodipodi.sourceforge.net/DTD/sodipodi-0.dtd" xmlns:inkscape="http://www.inkscape.org/namespaces/inkscape"
	 xmlns="http://www.w3.org/2000/svg" xmlns:xlink="http://www.w3.org/1999/xlink" x="0px" y="0px" viewBox="0 0 187.5 187.5"
	 style="enable-background:new 0 0 187.5 187.5;" xml:space="preserve">
<style type="text/css">
	.st0{fill-rule:evenodd;clip-rule:evenodd;fill:#60606E;}
	.st1{fill-rule:evenodd;clip-rule:evenodd;fill:#7CEEC7;}
	.st2{fill:#FFFFFF;}
</style>
<sodipodi:namedview  bordercolor="#666666" borderopacity="1.0" id="namedview8" inkscape:pagecheckerboard="0" inkscape:pageopacity="0.0" inkscape:pageshadow="2" pagecolor="#ffffff">
	</sodipodi:namedview>
<path id="path2" class="st0" d="M0,187.5V0h187.5v187.5H0z"/>
<path id="path4" class="st1" d="M0,80.4c12.6,0,37.6,17,50.2,17c12,0,24.3-16.6,43.5-17c19.3,0,41.7,18,54.4,18
	c12.5,0,26.9-18,39.4-18l0,0v107.1H0V80.4z"/>
<g>
	<path class="st2" d="M38.2,99.9c-6,6.5-11.3,9.7-15.9,9.7c-1.7,0-3-0.7-4-2c-1-1.3-1.3-3-0.9-5.1c0.9-4.9,4-10.2,9.4-15.8
		c5.4-5.6,10.3-8.4,14.8-8.4c2.3,0,3.6,1.1,3.9,3.4c2.1,0,3.1,0.8,2.8,2.5c-0.1,0.8-0.6,2.2-1.4,4.2c-1.4,3.8-2.3,6.9-2.7,9.2
		c-0.4,2.4-0.6,4.1-0.4,5c0.2,1,0.3,1.6,0.4,1.9c0.1,0.3,0.5,0.6,1.2,0.9c0.7,0.4,1,0.8,0.9,1.5c-0.2,0.9-0.8,1.7-1.9,2.4
		c-1.1,0.6-2.1,1-3.2,1C37.6,110.4,36.7,106.9,38.2,99.9z M39.3,84.4c-1.9,0-4.7,2.1-8.4,6.2c-3.7,4.2-5.9,7.7-6.4,10.6
		c-0.3,1.5-0.1,2.3,0.5,2.3c2.2,0,5.2-1.9,9.1-5.8c3.9-3.9,6.1-7.3,6.6-10.2c0.2-0.9,0.1-1.7-0.2-2.2C40.2,84.7,39.8,84.4,39.3,84.4
		z"/>
	<path class="st2" d="M80.9,85.9L80.9,85.9L80.9,85.9c-1.2,0.7-2.2,1.2-2.9,1.6c-1.4,0.8-2.8,1.7-4.2,2.7c-1.6,1.1-2.9,2.1-3.8,2.8
		c-0.7,0.6-1.1,1.1-1.2,1.4c-0.1,0.3,0.8,1.6,2.6,3.9c1.8,2.3,3.2,3.9,4.3,4.9c1.1,1,2.3,1.5,3.5,1.5l1.2,0c0.4,0,0.8,0.1,1,0.4
		c0.2,0.3,0.3,0.7,0.2,1.2c-0.1,0.8-0.8,1.6-1.9,2.7c-1.1,1-2.8,1.5-5.1,1.5c-1.4,0-2.6-0.5-3.9-1.5c-1.2-1-3-3.2-5.2-6.7
		c-1.8-2.8-2.8-4.2-3-4.2c-0.1,0-0.6,0.3-1.3,1c-0.8,0.7-1.3,1.2-1.6,1.5l0,0c-0.6,1.5-1.1,3.6-1.5,6.1c-0.2,1.2-0.8,2.3-1.6,3
		c-0.9,0.8-1.8,1.2-2.9,1.2c-1.1,0-1.9-0.3-2.4-0.9c-0.5-0.6-0.7-1.3-0.6-1.9c0.1-0.7,0.6-2.1,1.5-4.4c1.7-4.4,3.5-10.3,5.4-17.6
		c1.6-5.8,2.9-10.4,4-13.6s1.8-5.4,2.3-6.4c0.5-1,1.2-1.8,2.1-2.4c0.8-0.6,1.7-0.9,2.6-0.9c0.8,0,1.4,0.3,1.8,1
		c0.4,0.7,0.5,1.5,0.3,2.5c-0.2,1.2-1.8,5.9-4.8,14.2L64.2,84h0c-1.8,5.4-2.7,8.5-2.9,9.3l9.9-7.8c5.1-4.2,8.7-6.3,10.7-6.3
		c2,0,2.8,0.8,2.5,2.4C84.2,83.6,83,85,80.9,85.9z"/>
	<path class="st2" d="M105.4,99.9c-6,6.5-11.3,9.7-15.9,9.7c-1.7,0-3-0.7-4-2c-1-1.3-1.3-3-0.9-5.1c0.9-4.9,4-10.2,9.4-15.8
		c5.4-5.6,10.3-8.4,14.8-8.4c2.3,0,3.6,1.1,3.9,3.4c2.1,0,3.1,0.8,2.8,2.5c-0.1,0.8-0.6,2.2-1.4,4.2c-1.4,3.8-2.3,6.9-2.7,9.2
		c-0.4,2.4-0.6,4.1-0.4,5c0.2,1,0.3,1.6,0.4,1.9c0.1,0.3,0.5,0.6,1.2,0.9c0.7,0.4,1,0.8,0.9,1.5c-0.2,0.9-0.8,1.7-1.9,2.4
		c-1.1,0.6-2.1,1-3.2,1C104.7,110.4,103.8,106.9,105.4,99.9z M106.4,84.4c-1.9,0-4.7,2.1-8.4,6.2s-5.9,7.7-6.4,10.6
		c-0.3,1.5-0.1,2.3,0.5,2.3c2.2,0,5.2-1.9,9.1-5.8c3.9-3.9,6.1-7.3,6.6-10.2c0.2-0.9,0.1-1.7-0.2-2.2
		C107.4,84.7,106.9,84.4,106.4,84.4z"/>
	<path class="st2" d="M139.4,99.9c-6,6.8-11.5,10.2-16.3,10.2c-2,0-3.4-0.8-4.4-2.3c-0.9-1.6-1.2-3.5-0.8-5.9
		c0.9-4.9,3.7-9.7,8.5-14.5c4.8-4.8,9.3-7.2,13.3-7.2c2.3,0,3.9,0.6,4.7,1.8c2.5-6.1,4-9.9,4.5-11.4c1.1-2.8,1.9-4.7,2.4-5.6
		c0.5-0.9,1.2-1.7,2.1-2.2c0.9-0.5,1.6-0.8,2.1-0.8c0.9,0,1.6,0.4,2,1.2c0.4,0.8,0.4,1.8,0.2,3c-0.1,0.5-0.8,2-2,4.5
		c-2,4-4.1,8.9-6.3,14.6c-2.1,5.7-3.5,10.2-4.1,13.6c-0.6,3.2-0.1,4.8,1.3,4.8c0.7,0,1.5-0.2,2.4-0.6c0.9-0.4,1.5-0.6,1.8-0.6
		c0.9,0,1.3,0.5,1.1,1.6c-0.2,1.3-1.4,2.6-3.5,3.8c-2.1,1.3-3.9,1.9-5.6,1.9c-1.8,0-3-1-3.6-2.9C138.6,105,138.7,102.7,139.4,99.9z
		 M138.8,85.6c-2.4,0-5.3,1.9-8.6,5.6c-3.3,3.7-5.2,7.1-5.8,10.2c-0.3,1.8,0.2,2.7,1.5,2.7c2.3,0,5.3-2,9.2-6.1c3.9-4,6-7.2,6.4-9.6
		c0.1-0.7-0.1-1.4-0.5-2C140.5,85.9,139.8,85.6,138.8,85.6z"/>
	<path class="st2" d="M158.6,108.5c-1.1,0-1.9-0.2-2.4-0.7c-0.5-0.4-0.5-1.6-0.2-3.4c0.2-1,0.4-1.8,0.6-2.4c0.2-0.5,0.7-1,1.6-1.3
		c0.9-0.3,2.1-0.5,3.6-0.5c1.1,0,2,0.3,2.5,0.8s0.7,1.1,0.6,1.7c-0.2,1-0.5,1.8-0.9,2.4c-0.4,0.6-1.3,1.3-2.5,2.1
		C160.2,108.1,159.2,108.5,158.6,108.5z"/>
</g>
</svg>
