<svg width="29" height="28" viewBox="0 0 29 28" fill="none" xmlns="http://www.w3.org/2000/svg">
<path d="M0.32 28V-1.90735e-06H13.04C16.08 -1.90735e-06 18.76 0.586665 21.08 1.76C23.4 2.90667 25.2133 4.52 26.52 6.6C27.8267 8.68 28.48 11.1467 28.48 14C28.48 16.8267 27.8267 19.2933 26.52 21.4C25.2133 23.48 23.4 25.1067 21.08 26.28C18.76 27.4267 16.08 28 13.04 28H0.32ZM6.8 22.68H12.72C14.5867 22.68 16.2 22.3333 17.56 21.64C18.9467 20.92 20.0133 19.9067 20.76 18.6C21.5333 17.2933 21.92 15.76 21.92 14C21.92 12.2133 21.5333 10.68 20.76 9.4C20.0133 8.09333 18.9467 7.09333 17.56 6.4C16.2 5.68 14.5867 5.32 12.72 5.32H6.8V22.68Z" fill="#60606E"/>
</svg>
