<svg width="132" height="29" viewBox="0 0 132 29" fill="none" xmlns="http://www.w3.org/2000/svg">
<path d="M0.64 28L13.12 -1.90735e-06H19.52L32.04 28H25.24L15 3.28H17.56L7.28 28H0.64ZM6.88 22L8.6 17.08H23L24.76 22H6.88ZM40.745 21.6L40.385 14.12L53.785 -1.90735e-06H60.985L48.905 13L45.305 16.84L40.745 21.6ZM34.945 28V-1.90735e-06H41.385V28H34.945ZM54.105 28L44.145 15.8L48.385 11.2L61.665 28H54.105ZM59.5853 28L72.0653 -1.90735e-06H78.4653L90.9853 28H84.1853L73.9453 3.28H76.5053L66.2253 28H59.5853ZM65.8253 22L67.5453 17.08H81.9453L83.7053 22H65.8253ZM93.8903 28V-1.90735e-06H106.61C109.65 -1.90735e-06 112.33 0.586665 114.65 1.76C116.97 2.90667 118.784 4.52 120.09 6.6C121.397 8.68 122.05 11.1467 122.05 14C122.05 16.8267 121.397 19.2933 120.09 21.4C118.784 23.48 116.97 25.1067 114.65 26.28C112.33 27.4267 109.65 28 106.61 28H93.8903ZM100.37 22.68H106.29C108.157 22.68 109.77 22.3333 111.13 21.64C112.517 20.92 113.584 19.9067 114.33 18.6C115.104 17.2933 115.49 15.76 115.49 14C115.49 12.2133 115.104 10.68 114.33 9.4C113.584 8.09333 112.517 7.09333 111.13 6.4C109.77 5.68 108.157 5.32 106.29 5.32H100.37V22.68ZM128.076 28.32C127.009 28.32 126.089 27.96 125.316 27.24C124.569 26.4933 124.196 25.5467 124.196 24.4C124.196 23.2533 124.569 22.3333 125.316 21.64C126.089 20.92 127.009 20.56 128.076 20.56C129.169 20.56 130.089 20.92 130.836 21.64C131.583 22.3333 131.956 23.2533 131.956 24.4C131.956 25.5467 131.583 26.4933 130.836 27.24C130.089 27.96 129.169 28.32 128.076 28.32Z" fill="#60606E"/>
</svg>
